<?xml version="1.0" encoding="UTF-8" standalone="no"?><!-- Generator: Gravit.io --><svg xmlns="http://www.w3.org/2000/svg" xmlns:xlink="http://www.w3.org/1999/xlink" style="isolation:isolate" viewBox="0 0 16 16" width="16pt" height="16pt"><defs><clipPath id="_clipPath_SlZ0eZHv49h9DW6YAfdvz3Dphw3GeI7z"><rect width="16" height="16"/></clipPath></defs><g clip-path="url(#_clipPath_SlZ0eZHv49h9DW6YAfdvz3Dphw3GeI7z)"><path d=" M 1.74 8.386 C 3.204 9.726 4.181 10.58 5.471 10.988 L 6.135 11.028 C 6.979 11.192 7.511 11.324 8.007 11.453 C 6.423 10.728 4.869 9.765 3.426 7.882 C 2.859 8.171 2.512 7.921 1.74 8.386 Z " fill="rgb(102,102,102)"/><path d=" M 3.838 5.996 C 4.554 7.995 6.41 10.385 9.825 11.745 L 8.153 10.55 L 8.1 10.059 C 6.581 9.013 6.123 7.853 5.577 6.62 C 7.194 5.416 8.138 5.096 10.171 4.987 L 10.317 4.669 L 11.578 4.669 C 9.573 4.204 7.068 3.643 3.838 5.996 Z " fill="rgb(102,102,102)"/><path d=" M 6.984 7.112 C 7.176 7.987 7.653 8.655 8.232 9.249 L 8.139 7.47 C 10.437 5.781 12.421 6.066 14.26 7.271 C 13.725 6.53 13.093 6.142 12.454 5.784 L 12.627 5.625 C 10.922 5.417 9.177 5.37 6.984 7.112 Z " fill="rgb(102,102,102)"/></g></svg>