<?xml version="1.0" encoding="UTF-8" standalone="no"?><!-- Generator: Gravit.io --><svg xmlns="http://www.w3.org/2000/svg" xmlns:xlink="http://www.w3.org/1999/xlink" style="isolation:isolate" viewBox="0 0 16 16" width="16pt" height="16pt"><defs><clipPath id="_clipPath_ACXIY1kHm24BpiNDafjB5udKWXRlXayM"><rect width="16" height="16"/></clipPath></defs><g clip-path="url(#_clipPath_ACXIY1kHm24BpiNDafjB5udKWXRlXayM)"><path d=" M 2.828 7.398 C 2.828 7.398 4.004 5.65 6.35 5.47 L 6.35 4.836 C 3.751 5.046 1.5 7.264 1.5 7.264 C 1.5 7.264 2.775 10.977 6.35 11.317 L 6.35 10.644 C 3.727 10.311 2.828 7.398 2.828 7.398 L 2.828 7.398 Z  M 6.35 9.304 L 6.35 9.921 C 4.367 9.565 3.817 7.488 3.817 7.488 C 3.817 7.488 4.769 6.425 6.35 6.253 L 6.35 6.93 C 6.349 6.93 6.348 6.929 6.347 6.929 C 5.518 6.829 4.869 7.61 4.869 7.61 C 4.869 7.61 5.233 8.925 6.35 9.304 M 6.35 3.667 L 6.35 4.836 C 6.427 4.83 6.503 4.825 6.58 4.822 C 9.535 4.722 11.461 7.264 11.461 7.264 C 11.461 7.264 9.249 9.974 6.945 9.974 C 6.734 9.974 6.536 9.954 6.35 9.921 L 6.35 10.644 C 6.509 10.664 6.674 10.676 6.846 10.676 C 8.99 10.676 10.54 9.573 12.042 8.267 C 12.291 8.468 13.31 8.956 13.519 9.17 C 12.092 10.374 8.765 11.345 6.879 11.345 C 6.697 11.345 6.522 11.334 6.351 11.317 L 6.351 12.333 L 14.5 12.333 L 14.5 3.667 L 6.35 3.667 L 6.35 3.667 Z  M 6.35 6.253 L 6.35 5.47 C 6.426 5.464 6.502 5.46 6.58 5.458 C 8.705 5.391 10.099 7.298 10.099 7.298 C 10.099 7.298 8.593 9.405 6.979 9.405 C 6.746 9.405 6.538 9.367 6.35 9.304 L 6.35 6.93 C 7.178 7.031 7.344 7.399 7.842 8.234 L 8.948 7.294 C 8.948 7.294 8.14 6.227 6.779 6.227 C 6.631 6.227 6.49 6.238 6.351 6.253" fill="rgb(102,102,102)"/></g></svg>