<?xml version="1.0" encoding="UTF-8" standalone="no"?><!-- Generator: Gravit.io --><svg xmlns="http://www.w3.org/2000/svg" xmlns:xlink="http://www.w3.org/1999/xlink" style="isolation:isolate" viewBox="0 0 16 16" width="16pt" height="16pt"><defs><clipPath id="_clipPath_eu76bpao8IMJyj5svu2w2XUHU3N1XFiH"><rect width="16" height="16"/></clipPath></defs><g clip-path="url(#_clipPath_eu76bpao8IMJyj5svu2w2XUHU3N1XFiH)"><g><path d=" M 13.682 6.616 C 13.143 3.964 8.05 3.796 4.768 5.816 L 4.768 6.04 C 8.046 4.334 12.698 4.345 13.121 6.788 C 13.264 7.598 12.814 8.439 12.009 8.924 L 12.009 9.557 C 12.978 9.199 13.97 8.038 13.683 6.616 M 7.713 11.259 C 5.448 11.471 3.088 11.138 2.757 9.347 C 2.593 8.465 2.993 7.529 3.52 6.949 L 3.52 6.638 C 2.57 7.481 2.053 8.547 2.351 9.806 C 2.731 11.421 4.757 12.335 7.85 12.031 C 9.074 11.912 10.676 11.513 11.788 10.894 L 11.788 10.016 C 10.778 10.626 9.106 11.13 7.714 11.259 L 7.713 11.259 Z " fill="rgb(102,102,102)"/><path d=" M 11.607 6.233 L 11.013 6.233 L 11.013 8.91 C 11.013 9.224 11.162 9.498 11.607 9.541 M 4.533 7.211 L 3.939 7.211 L 3.939 8.96 C 3.939 9.274 4.088 9.548 4.533 9.591 M 3.939 6.314 L 4.533 6.314 L 4.533 6.883 L 3.939 6.883 L 3.939 6.314 Z  M 8.091 9.563 C 7.61 9.563 7.407 9.224 7.407 8.89 L 7.407 6.568 L 7.994 6.568 L 7.994 7.211 L 8.439 7.211 L 8.439 7.693 L 7.994 7.693 L 7.994 8.855 C 7.994 8.991 8.059 9.066 8.199 9.066 L 8.439 9.066 L 8.439 9.563 L 8.091 9.563 M 9.653 7.663 C 9.452 7.663 9.296 7.769 9.232 7.911 C 9.193 7.996 9.18 8.062 9.173 8.167 L 10.083 8.167 C 10.07 7.91 9.955 7.663 9.653 7.663 Z  M 9.173 8.573 C 9.173 8.877 9.363 9.102 9.696 9.102 C 9.957 9.102 10.087 9.028 10.238 8.877 L 10.601 9.23 C 10.368 9.462 10.124 9.603 9.692 9.603 C 9.128 9.603 8.588 9.292 8.588 8.385 C 8.588 7.609 9.059 7.171 9.679 7.171 C 10.307 7.171 10.668 7.684 10.668 8.358 L 10.668 8.573 L 9.173 8.573 M 6.133 7.693 C 6.306 7.693 6.377 7.778 6.377 7.918 L 6.377 9.566 L 6.966 9.566 L 6.966 7.916 C 6.966 7.581 6.789 7.211 6.273 7.211 L 5.057 7.211 L 5.057 9.566 L 5.645 9.566 L 5.645 7.693" fill="rgb(102,102,102)"/><text transform="matrix(0.038,0,0,0.038,11.945,6.623)" style="font-family:'Open Sans';font-weight:400;font-size:14.4px;font-style:normal;font-variant-ligatures:none;fill:#666666;stroke:none;">®</text></g></g></svg>